<svg width="39" height="18" viewBox="0 0 39 18" fill="none" xmlns="http://www.w3.org/2000/svg">
<g clip-path="url(#clip0_15811_51139)">
<path d="M7.12597 3.02835C6.66894 3.56917 5.93754 3.99589 5.20621 3.93488C5.1148 3.20363 5.47281 2.42652 5.89183 1.94656C6.34886 1.39051 7.14882 0.994336 7.79636 0.963867C7.87253 1.72566 7.57538 2.47222 7.12597 3.02835ZM7.78882 4.07968C6.72988 4.01874 5.82335 4.68144 5.32054 4.68144C4.81019 4.68144 4.0407 4.11015 3.20274 4.12538C2.1134 4.14062 1.10017 4.75761 0.544034 5.74038C-0.598696 7.70584 0.246964 10.616 1.35153 12.2157C1.89243 13.008 2.53997 13.8764 3.39317 13.846C4.20074 13.8155 4.52066 13.3204 5.49582 13.3204C6.47851 13.3204 6.76042 13.846 7.61362 13.8307C8.49729 13.8155 9.05342 13.0386 9.59432 12.2462C10.2113 11.3473 10.4628 10.4712 10.478 10.4255C10.4628 10.4102 8.77159 9.76279 8.75635 7.81248C8.74112 6.18225 10.0895 5.40522 10.1504 5.35952C9.38858 4.23202 8.20022 4.11015 7.78882 4.07968ZM13.9062 1.87039V13.747H15.7497V9.68661H18.3018C20.6328 9.68661 22.2708 8.08685 22.2708 5.77092C22.2708 3.45507 20.6633 1.87047 18.3627 1.87047L13.9062 1.87039ZM15.7497 3.42452H17.8751C19.475 3.42452 20.3891 4.27773 20.3891 5.77846C20.3891 7.2792 19.475 8.1401 17.8675 8.1401H15.7497V3.42452ZM25.6379 13.8384C26.7958 13.8384 27.8699 13.2518 28.3575 12.3224H28.3956V13.747H30.1021V7.83533C30.1021 6.12131 28.7308 5.01667 26.6206 5.01667C24.6627 5.01667 23.2153 6.13655 23.162 7.67537H24.8228C24.9599 6.94405 25.6378 6.46409 26.5672 6.46409C27.6947 6.46409 28.327 6.98975 28.327 7.95728V8.61236L26.0263 8.74947C23.8857 8.87896 22.7278 9.75509 22.7278 11.2788C22.7278 12.8176 23.9238 13.8384 25.6379 13.8384ZM26.133 12.429C25.1504 12.429 24.5256 11.9568 24.5256 11.233C24.5256 10.4865 25.1274 10.0522 26.2778 9.98369L28.327 9.85419V10.5245C28.327 11.6368 27.3824 12.429 26.1331 12.429M32.3799 16.977C34.1778 16.977 35.0234 16.2915 35.7623 14.2117L38.9999 5.13093H37.1259L34.9548 12.1471H34.9167L32.7455 5.13093H30.8182L33.9415 13.7774L33.7739 14.3031C33.4921 15.1944 33.035 15.5372 32.2199 15.5372C32.0751 15.5372 31.7933 15.522 31.679 15.5068V16.9313C31.7856 16.9618 32.2427 16.977 32.3798 16.977" fill="black"/>
</g>
<defs>
<clipPath id="clip0_15811_51139">
<rect width="39" height="16.0723" fill="white" transform="translate(0 0.963867)"/>
</clipPath>
</defs>
</svg>
