<svg width="51" height="12" viewBox="0 0 51 12" fill="none" xmlns="http://www.w3.org/2000/svg">
<path d="M21.3072 6.92041H0V11.9903H21.3072V6.92041Z" fill="#84B740"/>
<path d="M21.3072 0.00146484H0V5.07586H21.3072V0.00146484Z" fill="#259BD6"/>
<path d="M42.6132 10.9609L42.5183 10.9745C42.1893 11.0197 42.0691 11.0378 41.8287 11.0378C41.272 11.0378 40.6141 10.8344 40.6141 9.87647C40.6141 9.38394 40.7279 8.72875 41.7655 8.72875H41.7718C41.9489 8.73779 42.1514 8.75134 42.531 8.83268L42.6132 8.85075V10.9609ZM42.784 6.18477L42.6132 6.20737V7.97866L42.4614 7.94703L42.4171 7.93799C42.2463 7.90184 41.854 7.82051 41.4745 7.82051C39.3994 7.82051 38.9629 8.94112 38.9629 9.88099C38.9629 11.1688 39.9751 11.9098 41.7402 11.9098C42.4867 11.9098 43.0371 11.8556 43.5938 11.7246C44.1062 11.6071 44.2897 11.4399 44.2897 11.0829V5.99951C43.7962 6.06277 43.2838 6.12603 42.784 6.18477Z" fill="#27292D"/>
<path d="M48.7863 10.992L48.6977 11.0101L48.3814 11.0688C48.0841 11.1231 47.8184 11.1547 47.6159 11.1547C47.1288 11.1547 46.8378 10.983 46.8378 10.6893C46.8378 10.4995 46.958 10.1787 47.7551 10.1787H48.7863V10.992ZM48.0588 7.79736C47.4198 7.79736 46.7619 7.8787 45.9458 8.05944L45.4144 8.17241L45.5915 9.03094L46.1103 8.90894C46.6543 8.78242 47.3312 8.70108 47.8374 8.70108C48.0651 8.70108 48.761 8.70108 48.761 9.2388V9.47377H47.7931C46.028 9.47377 45.2119 9.87592 45.2119 10.739C45.2119 11.4755 45.9647 11.9183 47.23 11.9183C47.6223 11.9183 48.1663 11.8641 48.6345 11.7828L48.6598 11.7783L48.6851 11.7828L48.8432 11.8008C49.3367 11.8641 49.8491 11.9274 50.3489 11.9951V9.17554C50.3489 8.26278 49.5771 7.79736 48.0588 7.79736Z" fill="#27292D"/>
<path d="M36.4806 10.992L36.3921 11.0101L36.0758 11.0688C35.7784 11.1231 35.519 11.1547 35.3103 11.1547C34.8231 11.1547 34.5321 10.983 34.5321 10.6893C34.5321 10.4995 34.6523 10.1787 35.4431 10.1787H36.4743V10.992H36.4806ZM35.7594 7.79736C35.1142 7.79736 34.4625 7.8787 33.6464 8.05944L33.115 8.17241L33.2922 9.03094L33.8109 8.90894C34.355 8.78242 35.0319 8.70108 35.538 8.70108C35.7658 8.70108 36.4617 8.70108 36.4617 9.2388V9.47377H35.4937C33.7287 9.47377 32.9062 9.87592 32.9062 10.739C32.9062 11.4755 33.6591 11.9183 34.9307 11.9183C35.3229 11.9183 35.867 11.8641 36.3351 11.7828L36.3604 11.7783L36.3858 11.7828L36.5376 11.8008C37.0374 11.8641 37.5435 11.9274 38.0433 11.9997V9.18006C38.0496 8.25826 37.2778 7.79736 35.7594 7.79736Z" fill="#27292D"/>
<path d="M29.8199 7.80432C29.0164 7.80432 28.3522 7.9941 28.1054 8.07544L28.0422 8.09803L27.9852 8.0664C27.6436 7.89018 27.1438 7.7998 26.4479 7.7998C25.8343 7.7998 25.2586 7.86306 24.6323 7.9941C24.0945 8.11159 23.8857 8.29685 23.8857 8.64478V11.8665H25.5686V8.88879L25.6508 8.87071C25.9924 8.78938 26.1949 8.77582 26.391 8.77582C26.8781 8.77582 27.1248 8.96108 27.1248 9.32257V11.8711H28.7824V9.27287C28.7824 9.11924 28.7381 9.02886 28.7317 9.01079L28.6748 8.93397L28.7887 8.89782C29.0417 8.81649 29.3201 8.77582 29.6111 8.77582C29.9464 8.77582 30.345 8.87071 30.345 9.32257V11.8711H31.9961V9.20509C31.9961 8.2607 31.2876 7.80432 29.8199 7.80432Z" fill="#27292D"/>
<path d="M47.5399 3.30811C47.2931 3.30811 46.8819 3.29003 46.5593 3.24485L46.4644 3.23129V1.49163C46.4644 1.34703 46.4264 1.25666 46.4201 1.2431L46.3695 1.17081L46.477 1.13918C46.5023 1.13014 46.5276 1.12562 46.5593 1.11658L46.5782 1.10755C46.6162 1.09851 46.6542 1.08947 46.6921 1.08044C46.7111 1.07592 46.7238 1.0714 46.7364 1.0714C47.1097 0.9991 47.4513 1.00814 47.6031 0.9991H47.6094C48.6406 0.9991 48.7608 1.6543 48.7608 2.14682C48.7545 3.10477 48.0902 3.30811 47.5399 3.30811ZM47.5335 0.000488281C47.5209 0.000488281 47.5019 0.000488281 47.4892 0.000488281C46.5213 0.000488281 45.5281 0.190271 45.1738 0.560796C44.984 0.74154 44.8765 0.96747 44.8701 1.23407V3.02795C44.8701 3.18158 44.8258 3.24033 44.8195 3.25388L44.7626 3.3307H41.7069V2.08356H41.7006C41.6627 0.768651 40.5745 0.0456743 38.9993 0.0456743H38.8158H37.4619C37.3987 0.366495 37.3481 0.592426 37.2848 0.913247H38.8158C39.6192 0.913247 40.0431 1.40126 40.0431 2.15134V3.40752L39.9356 3.36685C39.9166 3.36233 39.7837 3.3307 39.575 3.3307H36.9305C36.8799 3.57019 36.8167 3.88197 36.7471 4.19375H44.8765C45.1548 4.15309 45.4775 4.11694 45.7558 4.08531C46.167 4.2299 46.9325 4.30672 47.4576 4.30672C49.2227 4.30672 50.3677 3.46174 50.3677 2.16038C50.3614 0.87258 49.2543 0.0275999 47.5335 0.000488281Z" fill="#27292D"/>
<path d="M33.2741 4.72546H33.35C35.115 4.72546 35.9375 4.30975 35.9375 3.28402C35.9375 2.54749 35.1846 1.96007 33.9194 1.96007H32.2935C31.8064 1.96007 31.5153 1.76125 31.5153 1.42688C31.5153 1.20095 31.6355 0.920795 32.4327 0.920795H35.9881C36.064 0.590937 36.102 0.383081 36.1715 0.0532227H32.4769C30.7562 0.0532227 29.8895 0.568343 29.8895 1.42688C29.8895 2.27638 30.6423 2.7192 31.9076 2.7192H33.5335C34.0206 2.7192 34.3116 2.99483 34.3116 3.28402C34.3116 3.47381 34.1914 3.86692 33.4006 3.86692H33.1286L27.922 3.85789H26.973C26.1696 3.85789 25.6065 3.53255 25.6065 2.77794V2.2583C25.6065 1.47206 26.043 0.984055 26.973 0.984055H28.5166C28.5862 0.649679 28.6305 0.437304 28.6938 0.121002H26.7706H26.5871C25.0118 0.121002 23.9237 0.875609 23.8857 2.19052V2.24023V2.77794C23.9237 4.09285 25.0118 4.72094 26.5871 4.72094H26.7706H28.1244L30.946 4.72546H32.6288H33.2741Z" fill="#27292D"/>
</svg>
