<svg width="48" height="14" viewBox="0 0 48 14" fill="none" xmlns="http://www.w3.org/2000/svg">
<path d="M30.8242 10.3244V2.92945H32.0783V3.52105C32.4788 3.03113 33.0889 2.7569 33.7237 2.78463C35.1626 2.78463 36.1886 3.93394 36.1886 5.58241C36.1886 7.23087 35.1503 8.40175 33.7237 8.40175C33.092 8.42948 32.4819 8.16141 32.0783 7.67457V10.3244H30.8242ZM32.0783 4.90145V6.26028C32.3186 6.83956 32.8825 7.21547 33.508 7.21239C34.3399 7.21239 34.8945 6.59614 34.8945 5.57624C34.8945 4.55635 34.3399 3.95859 33.508 3.95859C32.8825 3.94626 32.3124 4.32218 32.0783 4.90145Z" fill="#00C48C"/>
<path d="M37.0174 6.75404C36.9773 5.89437 37.6367 5.16411 38.4963 5.1179L40.6255 4.84675V4.56635C40.6594 4.33526 40.5022 4.11649 40.268 4.0826C40.2342 4.07643 40.1972 4.07643 40.1633 4.07952H37.4888V2.93945H40.2157C41.2941 2.93945 41.8888 3.46943 41.8888 4.41229V8.25461H40.6255V7.60138C40.2126 8.14676 39.5532 8.45181 38.8692 8.41175C37.7692 8.41175 37.0204 7.73696 37.0204 6.74171M39.1773 7.39494C39.7935 7.41035 40.3605 7.06216 40.6255 6.50446V5.82966L39.0017 6.05768C38.5487 6.12238 38.3022 6.3658 38.3022 6.74171C38.3022 7.11763 38.6103 7.39494 39.1773 7.39494Z" fill="#00C48C"/>
<path d="M42.8011 9.18823H43.7255C44.0213 9.21596 44.2893 9.01568 44.3417 8.72296L44.5081 8.25461L42.5762 2.93945H43.858L45.0627 6.63695H45.0935L46.2428 2.93945H47.5554L45.4386 9.04341C45.1521 9.88151 44.77 10.3283 43.8364 10.3283H42.8165L42.8011 9.18823Z" fill="#00C48C"/>
<path d="M4.59719 13.9827C6.05461 13.9827 7.2532 13.5267 8.03891 12.7502C8.64283 12.1432 8.97561 11.3205 8.96328 10.4639C8.97561 9.67204 8.67057 8.90789 8.11595 8.34094C7.45348 7.71545 6.61847 7.30564 5.71875 7.1639L4.04257 6.83729C3.34621 6.70788 2.95489 6.3597 2.95489 5.87902C2.95489 5.26277 3.57114 4.81291 4.54481 4.81291C5.09018 4.79134 5.62323 4.98854 6.02379 5.35829C6.2518 5.60479 6.39662 5.91908 6.43976 6.25185L8.85544 5.70647C8.78149 5.01627 8.46412 4.37537 7.96188 3.89778C7.02519 3.03195 5.78654 2.56976 4.51091 2.6129C3.33697 2.57592 2.19383 2.97957 1.30644 3.7468C0.650139 4.35072 0.280391 5.20423 0.283473 6.09779C0.258823 6.84654 0.542296 7.57063 1.06919 8.1006C1.71008 8.68912 2.50195 9.08968 3.35545 9.25607L5.01007 9.64739C5.83892 9.84459 6.20867 10.1496 6.20867 10.695C6.20867 11.3698 5.59242 11.7611 4.59719 11.7611C3.97786 11.795 3.37086 11.5701 2.921 11.1449C2.65602 10.8768 2.49887 10.5194 2.48347 10.1435L0 10.6889C0.0739494 11.416 0.400559 12.097 0.924367 12.6054C1.75322 13.4743 3.08122 13.9981 4.58486 13.9981M22.9674 13.9981C24.3386 14.0351 25.6666 13.5267 26.6649 12.5838C27.2904 11.9799 27.7403 11.2219 27.9714 10.3838L25.4417 9.52722C25.1397 10.6272 24.1167 11.376 22.9767 11.3359C22.2557 11.3328 21.5686 11.0494 21.0571 10.541C20.4994 9.93087 20.2036 9.12358 20.2344 8.29472C20.2005 7.46895 20.4963 6.66166 21.0571 6.05465C21.5686 5.55241 22.2588 5.27818 22.9736 5.29359C23.6145 5.26277 24.2369 5.50003 24.696 5.94681C25.0011 6.27342 25.226 6.66782 25.3492 7.0992L27.9405 6.23029C27.7218 5.41684 27.2966 4.67425 26.7081 4.07341C25.6851 3.09974 24.317 2.57284 22.9058 2.6129C21.433 2.59749 20.0126 3.17061 18.9619 4.20282C17.8988 5.29667 17.3165 6.7695 17.3381 8.29472C17.3165 9.82918 17.9142 11.3051 18.9958 12.3928C20.0588 13.4312 21.4946 14.0043 22.9798 13.9827M14.1798 13.9827C15.3137 13.9827 16.1179 13.6345 16.4691 13.3295V10.9785C16.0378 11.2681 15.5294 11.4222 15.0086 11.4129C14.6142 11.4438 14.2229 11.3205 13.9179 11.0678C13.6745 10.7597 13.5574 10.3684 13.5913 9.97708V0H10.7165V2.93951H16.4691V5.72804H10.7165V10.658C10.6764 11.53 10.9815 12.3835 11.5669 13.0306C12.1832 13.6469 13.0706 13.955 14.1798 13.955" fill="#4F008C"/>
</svg>
