<svg width="44" height="14" viewBox="0 0 44 14" fill="none" xmlns="http://www.w3.org/2000/svg">
<path d="M43.3488 13.7818H40.0853C39.9661 13.2083 39.8381 12.6468 39.7366 12.0813C39.695 11.8461 39.6198 11.7549 39.3574 11.7613C38.0488 11.7781 36.7402 11.7741 35.4316 11.7613C35.2332 11.7613 35.1548 11.8253 35.0941 12.0061C34.9141 12.5452 34.7173 13.0795 34.5149 13.6106C34.4877 13.6834 34.3974 13.7826 34.335 13.7826C33.1551 13.793 31.9761 13.7906 30.7627 13.7906C30.9835 13.2579 31.193 12.7508 31.4026 12.242C32.9256 8.61322 34.4478 4.98574 35.9691 1.35959C36.2987 0.570099 36.7954 0.239746 37.6425 0.239746H40.5069C40.602 0.682883 40.6972 1.11962 40.7884 1.55556C41.5392 5.14118 42.2879 8.72707 43.0345 12.3132C43.1305 12.7732 43.244 13.2283 43.3496 13.6858L43.3488 13.7818ZM39.0775 8.9705L38.0432 4.01121L38.0016 4.00321L36.2011 8.9689L39.0775 8.9705Z" fill="url(#paint0_linear_15811_51148)"/>
<path d="M29.1295 0C29.5598 0.0799886 29.9942 0.145579 30.4205 0.243965C30.8093 0.333552 31.1908 0.459135 31.6043 0.576718C31.3953 1.55151 31.1916 2.50391 30.9932 3.43391C30.4477 3.27393 29.9262 3.08916 29.3935 2.97078C28.66 2.8108 27.9089 2.74761 27.1754 2.95158C26.8688 3.03898 26.5842 3.19027 26.3403 3.39552C25.9404 3.74027 25.9324 4.237 26.3171 4.59535C26.5917 4.83938 26.8912 5.05386 27.2106 5.23525C27.9249 5.66479 28.6744 6.03514 29.3703 6.49667C30.1878 7.0366 30.7837 7.77649 30.9092 8.78355C31.13 10.5593 30.4733 11.9583 28.9823 12.9478C28.0441 13.5701 26.9826 13.8476 25.8764 13.9508C24.3458 14.0954 22.8019 13.9203 21.3427 13.4365C21.2435 13.4045 21.1475 13.3637 21.0507 13.3237C21.0165 13.3065 20.9839 13.2864 20.9531 13.2637C21.1611 12.2878 21.3699 11.3104 21.5842 10.3041C21.8362 10.4137 22.0722 10.5241 22.3137 10.6241C23.4664 11.088 24.6574 11.3008 25.8908 11.0696C26.2201 11.0038 26.533 10.8733 26.8115 10.6857C27.4018 10.2897 27.4586 9.54584 26.921 9.08031C26.5675 8.77475 26.1428 8.54918 25.7404 8.30442C25.1061 7.92767 24.4374 7.59892 23.8423 7.17178C23.0792 6.62226 22.5273 5.89196 22.4225 4.9161C22.2625 3.45711 22.8064 2.27648 23.9263 1.35341C24.8997 0.553521 26.0564 0.197572 27.2858 0.0479932C27.3544 0.0358862 27.4222 0.0198622 27.489 0L29.1295 0Z" fill="url(#paint1_linear_15811_51148)"/>
<path d="M16.4416 0.251561C16.2584 0.693098 16.0848 1.11384 15.9088 1.53138C14.2302 5.53934 12.5533 9.54704 10.8784 13.5545C10.7984 13.7456 10.7016 13.7944 10.508 13.7944C9.4474 13.7856 8.38756 13.7824 7.32771 13.7944C7.10295 13.7944 7.02936 13.7192 6.97817 13.5177C6.0791 10.0174 5.16244 6.51867 4.27377 3.01437C4.11379 2.37446 3.78504 1.93212 3.17313 1.66256C2.19189 1.24367 1.1745 0.915157 0.13358 0.681099L0 0.647504C0.00479929 0.239562 0.00479928 0.239562 0.391942 0.239562H5.95672C6.83659 0.239562 7.47169 0.750689 7.63647 1.62177C8.1092 4.08861 8.56993 6.55866 9.03866 9.02231C9.05866 9.13029 9.08185 9.23748 9.11305 9.38946C9.16104 9.29907 9.19304 9.24868 9.21623 9.19349C10.367 6.2787 11.5164 3.36365 12.6645 0.448333C12.7269 0.288355 12.8037 0.234763 12.9757 0.236363C14.0523 0.245161 15.1282 0.236363 16.204 0.241162C16.2736 0.239562 16.3432 0.247561 16.4416 0.251561Z" fill="url(#paint2_linear_15811_51148)"/>
<path d="M15.0371 13.7904C16.0058 9.26146 16.968 4.7645 17.9327 0.256348H21.4474C21.301 0.94265 21.1578 1.61615 21.0138 2.28966C20.2182 6.01339 19.4239 9.7374 18.631 13.4617C18.5758 13.7208 18.4846 13.8032 18.2158 13.7976C17.256 13.7792 16.2889 13.7904 15.3251 13.7904H15.0371Z" fill="url(#paint3_linear_15811_51148)"/>
<defs>
<linearGradient id="paint0_linear_15811_51148" x1="2.42769" y1="7.26194" x2="43.1209" y2="6.99399" gradientUnits="userSpaceOnUse">
<stop stop-color="#262860"/>
<stop offset="1" stop-color="#3D429B"/>
</linearGradient>
<linearGradient id="paint1_linear_15811_51148" x1="344.005" y1="1253.14" x2="5762.8" y2="1226.07" gradientUnits="userSpaceOnUse">
<stop stop-color="#262860"/>
<stop offset="1" stop-color="#3D429B"/>
</linearGradient>
<linearGradient id="paint2_linear_15811_51148" x1="498.508" y1="1193.08" x2="8862.82" y2="1126.29" gradientUnits="userSpaceOnUse">
<stop stop-color="#262860"/>
<stop offset="1" stop-color="#3D429B"/>
</linearGradient>
<linearGradient id="paint3_linear_15811_51148" x1="209.396" y1="1207.21" x2="3470.72" y2="1197.08" gradientUnits="userSpaceOnUse">
<stop stop-color="#262860"/>
<stop offset="1" stop-color="#3D429B"/>
</linearGradient>
</defs>
</svg>
