<svg width="84" height="84" viewBox="0 0 84 84" fill="none" xmlns="http://www.w3.org/2000/svg">
<rect x="0.5" y="0.5" width="83" height="83" rx="41.5" fill="url(#paint0_linear_13838_5023)"/>
<rect x="0.5" y="0.5" width="83" height="83" rx="41.5" stroke="url(#paint1_linear_13838_5023)"/>
<g filter="url(#filter0_d_13838_5023)">
<rect x="16" y="16" width="52" height="52" rx="26" fill="white"/>
<rect x="16.5" y="16.5" width="51" height="51" rx="25.5" stroke="#D0DFFE"/>
<path fill-rule="evenodd" clip-rule="evenodd" d="M36.7505 42.0154C36.8875 41.9984 37 41.8881 37 41.75V39C37 36.2386 39.2386 34 42 34C44.7614 34 47 36.2386 47 39V41.75C47 41.8881 47.1125 41.9984 47.2495 42.0154C48.2363 42.1382 49 42.9799 49 44V48C49 49.1046 48.1046 50 47 50H37C35.8954 50 35 49.1046 35 48V44C35 42.9799 35.7637 42.1382 36.7505 42.0154ZM39 39C39 37.3431 40.3431 36 42 36C43.6569 36 45 37.3431 45 39V41.5C45 41.7761 44.7761 42 44.5 42H39.5C39.2239 42 39 41.7761 39 41.5V39ZM43.25 46C43.25 46.6904 42.6904 47.25 42 47.25C41.3096 47.25 40.75 46.6904 40.75 46C40.75 45.3096 41.3096 44.75 42 44.75C42.6904 44.75 43.25 45.3096 43.25 46Z" fill="#2563EB"/>
</g>
<defs>
<filter id="filter0_d_13838_5023" x="12" y="14" width="60" height="60" filterUnits="userSpaceOnUse" color-interpolation-filters="sRGB">
<feFlood flood-opacity="0" result="BackgroundImageFix"/>
<feColorMatrix in="SourceAlpha" type="matrix" values="0 0 0 0 0 0 0 0 0 0 0 0 0 0 0 0 0 0 127 0" result="hardAlpha"/>
<feOffset dy="2"/>
<feGaussianBlur stdDeviation="2"/>
<feColorMatrix type="matrix" values="0 0 0 0 0.701961 0 0 0 0 0.831373 0 0 0 0 0.992157 0 0 0 0.04 0"/>
<feBlend mode="normal" in2="BackgroundImageFix" result="effect1_dropShadow_13838_5023"/>
<feBlend mode="normal" in="SourceGraphic" in2="effect1_dropShadow_13838_5023" result="shape"/>
</filter>
<linearGradient id="paint0_linear_13838_5023" x1="42" y1="0" x2="42" y2="84" gradientUnits="userSpaceOnUse">
<stop stop-color="#E7F1FE" stop-opacity="0.48"/>
<stop offset="1" stop-color="#E7F1FE" stop-opacity="0"/>
<stop offset="1" stop-color="#E7F1FE" stop-opacity="0"/>
</linearGradient>
<linearGradient id="paint1_linear_13838_5023" x1="42" y1="0" x2="42" y2="84" gradientUnits="userSpaceOnUse">
<stop stop-color="#E7F1FE"/>
<stop offset="0.765625" stop-color="#E7F1FE" stop-opacity="0"/>
</linearGradient>
</defs>
</svg>
