<svg width="36" height="36" viewBox="0 0 36 36" fill="none" xmlns="http://www.w3.org/2000/svg">
<g filter="url(#filter0_i_13922_6465)">
<rect width="36" height="36" rx="8" fill="#2563EB"/>
<path d="M17.9938 11.9799C16.1944 9.81312 13.1938 9.23025 10.9392 11.2144C9.6363 12.361 8.98034 13.953 9.00045 15.5455C9.00371 15.8035 9.22183 16 9.47987 16H12.1507C12.3264 16 12.4891 15.9079 12.5795 15.7572L13.6425 13.9855C13.8329 13.6683 14.1828 13.482 14.5522 13.5014C14.9217 13.5207 15.2503 13.7424 15.4065 14.0777L17.7325 19.0708C17.8233 19.2658 18.1017 19.2627 18.1881 19.0656L20.5841 13.5986C20.7398 13.2433 21.0869 13.0101 21.4747 13.0003C21.8625 12.9905 22.221 13.2058 22.3944 13.5528L23.4798 15.7236C23.5645 15.893 23.7377 16 23.9271 16H26.5196C26.7766 16 26.9943 15.805 26.999 15.548C27.0287 13.9488 26.3763 12.3511 25.0484 11.2144C22.7551 9.25113 19.7933 9.81312 17.9938 11.9799Z" fill="url(#paint0_linear_13922_6465)" fill-opacity="0.8"/>
<path d="M26.1915 18.3561C26.2874 18.1963 26.1677 18 25.9813 18H23C22.6212 18 22.275 17.786 22.1056 17.4472L21.7981 16.8323C21.7033 16.6427 21.4306 16.6496 21.3455 16.8437L18.9097 22.4014C18.752 22.7613 18.3982 22.9954 18.0053 22.9999C17.6124 23.0044 17.2533 22.7784 17.0874 22.4223L14.5875 17.0559C14.5029 16.8742 14.2496 16.861 14.1465 17.0328L13.8575 17.5145C13.6768 17.8157 13.3513 18 13 18H10.0066C9.82034 18 9.70065 18.1959 9.79626 18.3557C9.89988 18.5289 10.0137 18.6981 10.1378 18.8625C11.3868 20.518 14.7835 23.7315 16.6759 25.4807C17.4249 26.1731 18.5627 26.1731 19.3118 25.4807C21.2042 23.7315 24.6008 20.518 25.8499 18.8625C25.9738 18.6983 26.0877 18.5293 26.1915 18.3561Z" fill="url(#paint1_linear_13922_6465)" fill-opacity="0.8"/>
<path d="M17.9938 11.9799C16.1944 9.81312 13.1938 9.23025 10.9392 11.2144C9.6363 12.361 8.98034 13.953 9.00045 15.5455C9.00371 15.8035 9.22183 16 9.47987 16H12.1507C12.3264 16 12.4891 15.9079 12.5795 15.7572L13.6425 13.9855C13.8329 13.6683 14.1828 13.482 14.5522 13.5014C14.9217 13.5207 15.2503 13.7424 15.4065 14.0777L17.7325 19.0708C17.8233 19.2658 18.1017 19.2627 18.1881 19.0656L20.5841 13.5986C20.7398 13.2433 21.0869 13.0101 21.4747 13.0003C21.8625 12.9905 22.221 13.2058 22.3944 13.5528L23.4798 15.7236C23.5645 15.893 23.7377 16 23.9271 16H26.5196C26.7766 16 26.9943 15.805 26.999 15.548C27.0287 13.9488 26.3763 12.3511 25.0484 11.2144C22.7551 9.25113 19.7933 9.81312 17.9938 11.9799Z" stroke="url(#paint2_linear_13922_6465)" stroke-width="2" stroke-linecap="round" stroke-linejoin="round"/>
<path d="M26.1915 18.3561C26.2874 18.1963 26.1677 18 25.9813 18H23C22.6212 18 22.275 17.786 22.1056 17.4472L21.7981 16.8323C21.7033 16.6427 21.4306 16.6496 21.3455 16.8437L18.9097 22.4014C18.752 22.7613 18.3982 22.9954 18.0053 22.9999C17.6124 23.0044 17.2533 22.7784 17.0874 22.4223L14.5875 17.0559C14.5029 16.8742 14.2496 16.861 14.1465 17.0328L13.8575 17.5145C13.6768 17.8157 13.3513 18 13 18H10.0066C9.82034 18 9.70065 18.1959 9.79626 18.3557C9.89988 18.5289 10.0137 18.6981 10.1378 18.8625C11.3868 20.518 14.7835 23.7315 16.6759 25.4807C17.4249 26.1731 18.5627 26.1731 19.3118 25.4807C21.2042 23.7315 24.6008 20.518 25.8499 18.8625C25.9738 18.6983 26.0877 18.5293 26.1915 18.3561Z" stroke="url(#paint3_linear_13922_6465)" stroke-width="2" stroke-linecap="round" stroke-linejoin="round"/>
</g>
<defs>
<filter id="filter0_i_13922_6465" x="0" y="-3.6" width="36" height="39.6" filterUnits="userSpaceOnUse" color-interpolation-filters="sRGB">
<feFlood flood-opacity="0" result="BackgroundImageFix"/>
<feBlend mode="normal" in="SourceGraphic" in2="BackgroundImageFix" result="shape"/>
<feColorMatrix in="SourceAlpha" type="matrix" values="0 0 0 0 0 0 0 0 0 0 0 0 0 0 0 0 0 0 127 0" result="hardAlpha"/>
<feOffset dy="-3.6"/>
<feGaussianBlur stdDeviation="3.6"/>
<feComposite in2="hardAlpha" operator="arithmetic" k2="-1" k3="1"/>
<feColorMatrix type="matrix" values="0 0 0 0 1 0 0 0 0 1 0 0 0 0 1 0 0 0 0.64 0"/>
<feBlend mode="normal" in2="shape" result="effect1_innerShadow_13922_6465"/>
</filter>
<linearGradient id="paint0_linear_13922_6465" x1="18" y1="10" x2="18" y2="34.2617" gradientUnits="userSpaceOnUse">
<stop offset="0.313079" stop-color="white"/>
<stop offset="1" stop-color="white" stop-opacity="0"/>
</linearGradient>
<linearGradient id="paint1_linear_13922_6465" x1="18" y1="10" x2="18" y2="34.2617" gradientUnits="userSpaceOnUse">
<stop offset="0.313079" stop-color="white"/>
<stop offset="1" stop-color="white" stop-opacity="0"/>
</linearGradient>
<linearGradient id="paint2_linear_13922_6465" x1="49.7717" y1="-28.8339" x2="1.8622" y2="14.8906" gradientUnits="userSpaceOnUse">
<stop stop-color="white"/>
<stop offset="1" stop-color="white" stop-opacity="0"/>
</linearGradient>
<linearGradient id="paint3_linear_13922_6465" x1="49.7717" y1="-28.8339" x2="1.8622" y2="14.8906" gradientUnits="userSpaceOnUse">
<stop stop-color="white"/>
<stop offset="1" stop-color="white" stop-opacity="0"/>
</linearGradient>
</defs>
</svg>
