<svg width="40" height="40" viewBox="0 0 40 40" fill="none" xmlns="http://www.w3.org/2000/svg">
<g filter="url(#filter0_di_16326_14079)">
<rect x="2" y="1" width="36" height="36" rx="8" fill="#2563EB"/>
<path d="M24.1664 20.667C26.4675 20.667 28.3333 22.532 28.3334 24.833V25.667C28.3333 26.1269 27.9604 26.4998 27.5004 26.5H24.895C24.9635 26.2337 25.0004 25.9546 25.0004 25.667V24.833C25.0004 23.2566 24.4524 21.8082 23.5375 20.667H24.1664ZM23.3334 11.5C25.1742 11.5001 26.6663 12.9922 26.6664 14.833C26.6664 16.6739 25.1743 18.1669 23.3334 18.167C23.0022 18.167 22.6824 18.1173 22.3803 18.0273C22.9821 17.1096 23.3334 16.0124 23.3334 14.833C23.3334 13.6535 22.9823 12.5564 22.3803 11.6387C22.6823 11.5487 23.0022 11.5 23.3334 11.5Z" fill="white"/>
<path d="M18.3333 20.6667H16.6667C14.3655 20.6667 12.5 22.5321 12.5 24.8333V25.6667C12.5 26.1269 12.8731 26.5 13.3333 26.5H21.6667C22.1269 26.5 22.5 26.1269 22.5 25.6667V24.8333C22.5 22.5321 20.6345 20.6667 18.3333 20.6667Z" stroke="white" stroke-width="1.66667"/>
<path d="M17.5 18.1667C19.3409 18.1667 20.8333 16.6743 20.8333 14.8333C20.8333 12.9924 19.3409 11.5 17.5 11.5C15.6591 11.5 14.1667 12.9924 14.1667 14.8333C14.1667 16.6743 15.6591 18.1667 17.5 18.1667Z" stroke="white" stroke-width="1.66667"/>
</g>
<defs>
<filter id="filter0_di_16326_14079" x="0" y="-3" width="40" height="43" filterUnits="userSpaceOnUse" color-interpolation-filters="sRGB">
<feFlood flood-opacity="0" result="BackgroundImageFix"/>
<feColorMatrix in="SourceAlpha" type="matrix" values="0 0 0 0 0 0 0 0 0 0 0 0 0 0 0 0 0 0 127 0" result="hardAlpha"/>
<feOffset dy="1"/>
<feGaussianBlur stdDeviation="1"/>
<feComposite in2="hardAlpha" operator="out"/>
<feColorMatrix type="matrix" values="0 0 0 0 0.0509804 0 0 0 0 0.0509804 0 0 0 0 0.0705882 0 0 0 0.1 0"/>
<feBlend mode="normal" in2="BackgroundImageFix" result="effect1_dropShadow_16326_14079"/>
<feBlend mode="normal" in="SourceGraphic" in2="effect1_dropShadow_16326_14079" result="shape"/>
<feColorMatrix in="SourceAlpha" type="matrix" values="0 0 0 0 0 0 0 0 0 0 0 0 0 0 0 0 0 0 127 0" result="hardAlpha"/>
<feOffset dy="-4"/>
<feGaussianBlur stdDeviation="3"/>
<feComposite in2="hardAlpha" operator="arithmetic" k2="-1" k3="1"/>
<feColorMatrix type="matrix" values="0 0 0 0 1 0 0 0 0 1 0 0 0 0 1 0 0 0 0.5 0"/>
<feBlend mode="normal" in2="shape" result="effect2_innerShadow_16326_14079"/>
</filter>
</defs>
</svg>
